# xmcd
#
# Track frame offsets:
#	150
#	19820
#	39450
#	54154
#	82639
#	108695
#	129726
#	148990
#	176336
#	200285
#	228935
#
# Disc length: 3393 seconds
#
# Revision: 1
# Processed by: cddbd v1.5.2PL0 Copyright (c) Steve Scherf et al.
# Submitted via: audiograbber 1.83.01
#
DISCID=8a0d3f0b
DTITLE=Robben Ford - Truth
DYEAR=2007
DGENRE=Blues
TTITLE0=Lateral Climb
TTITLE1=How deep in the blues
TTITLE2=Nobody's Fault but mine
TTITLE3=Riley B.King
TTITLE4=You're gonna need a friend
TTITLE5=One man's ceiling is another mans floor
TTITLE6=Too Much
TTITLE7=Peace on my mind
TTITLE8=There never be another you
TTITLE9=River of soul
TTITLE10=Moonchild Blues
EXTD=
EXTT0=
EXTT1=
EXTT2=
EXTT3=
EXTT4=
EXTT5=
EXTT6=
EXTT7=
EXTT8=
EXTT9=
EXTT10=
PLAYORDER=
